<mxfile host="app.diagrams.net" modified="2020-10-12T13:13:36.167Z" agent="5.0 (Windows NT 10.0; Win64; x64) AppleWebKit/537.36 (KHTML, like Gecko) Chrome/85.0.4183.121 Safari/537.36" etag="UqS7ffk7kI3_ESHPoJn_" version="13.7.9" type="github" pages="2">
  <diagram id="FYpWJPQytjL7tUGsdRTU" name="Main">
    <mxGraphModel dx="782" dy="1583" grid="1" gridSize="10" guides="1" tooltips="1" connect="1" arrows="1" fold="1" page="1" pageScale="1" pageWidth="850" pageHeight="1100" math="0" shadow="0">
      <root>
        <mxCell id="0" />
        <mxCell id="1" parent="0" />
        <mxCell id="BskJ-WAjJVnQhyJ9geP2-8" value="" style="edgeStyle=orthogonalEdgeStyle;rounded=0;orthogonalLoop=1;jettySize=auto;html=1;" edge="1" parent="1" source="BskJ-WAjJVnQhyJ9geP2-1" target="BskJ-WAjJVnQhyJ9geP2-2">
          <mxGeometry relative="1" as="geometry" />
        </mxCell>
        <mxCell id="BskJ-WAjJVnQhyJ9geP2-1" value="Start" style="ellipse;whiteSpace=wrap;html=1;" vertex="1" parent="1">
          <mxGeometry x="350" y="-10" width="90" height="40" as="geometry" />
        </mxCell>
        <mxCell id="BskJ-WAjJVnQhyJ9geP2-9" value="" style="edgeStyle=orthogonalEdgeStyle;rounded=0;orthogonalLoop=1;jettySize=auto;html=1;" edge="1" parent="1" source="BskJ-WAjJVnQhyJ9geP2-2" target="BskJ-WAjJVnQhyJ9geP2-4">
          <mxGeometry relative="1" as="geometry" />
        </mxCell>
        <mxCell id="BskJ-WAjJVnQhyJ9geP2-2" value="Read I/p files" style="rounded=0;whiteSpace=wrap;html=1;" vertex="1" parent="1">
          <mxGeometry x="330" y="80" width="130" height="40" as="geometry" />
        </mxCell>
        <mxCell id="BskJ-WAjJVnQhyJ9geP2-11" value="" style="edgeStyle=orthogonalEdgeStyle;rounded=0;orthogonalLoop=1;jettySize=auto;html=1;" edge="1" parent="1" source="BskJ-WAjJVnQhyJ9geP2-4" target="BskJ-WAjJVnQhyJ9geP2-5">
          <mxGeometry relative="1" as="geometry" />
        </mxCell>
        <mxCell id="BskJ-WAjJVnQhyJ9geP2-4" value="Add Data to Data table" style="rounded=0;whiteSpace=wrap;html=1;" vertex="1" parent="1">
          <mxGeometry x="332.5" y="160" width="125" height="50" as="geometry" />
        </mxCell>
        <mxCell id="BskJ-WAjJVnQhyJ9geP2-13" value="" style="edgeStyle=orthogonalEdgeStyle;rounded=0;orthogonalLoop=1;jettySize=auto;html=1;" edge="1" parent="1" source="BskJ-WAjJVnQhyJ9geP2-5" target="BskJ-WAjJVnQhyJ9geP2-6">
          <mxGeometry relative="1" as="geometry" />
        </mxCell>
        <mxCell id="BskJ-WAjJVnQhyJ9geP2-5" value="Perform Calculation" style="rounded=0;whiteSpace=wrap;html=1;" vertex="1" parent="1">
          <mxGeometry x="335" y="260" width="120" height="40" as="geometry" />
        </mxCell>
        <mxCell id="BskJ-WAjJVnQhyJ9geP2-14" value="" style="edgeStyle=orthogonalEdgeStyle;rounded=0;orthogonalLoop=1;jettySize=auto;html=1;" edge="1" parent="1" source="BskJ-WAjJVnQhyJ9geP2-6" target="BskJ-WAjJVnQhyJ9geP2-7">
          <mxGeometry relative="1" as="geometry" />
        </mxCell>
        <mxCell id="BskJ-WAjJVnQhyJ9geP2-6" value="Update Tracker" style="rounded=0;whiteSpace=wrap;html=1;" vertex="1" parent="1">
          <mxGeometry x="335" y="350" width="120" height="40" as="geometry" />
        </mxCell>
        <mxCell id="BskJ-WAjJVnQhyJ9geP2-7" value="end" style="ellipse;whiteSpace=wrap;html=1;" vertex="1" parent="1">
          <mxGeometry x="335" y="450" width="120" height="40" as="geometry" />
        </mxCell>
      </root>
    </mxGraphModel>
  </diagram>
  <diagram id="iMqrAXQJjeTH-tUl5RFJ" name="Page-2">
    <mxGraphModel dx="1022" dy="1583" grid="1" gridSize="10" guides="1" tooltips="1" connect="1" arrows="1" fold="1" page="1" pageScale="1" pageWidth="850" pageHeight="1100" math="0" shadow="0">
      <root>
        <mxCell id="hU-miq3bhoV0gjMJkw_J-0" />
        <mxCell id="hU-miq3bhoV0gjMJkw_J-1" parent="hU-miq3bhoV0gjMJkw_J-0" />
        <mxCell id="hU-miq3bhoV0gjMJkw_J-10" value="" style="edgeStyle=orthogonalEdgeStyle;rounded=0;orthogonalLoop=1;jettySize=auto;html=1;" edge="1" parent="hU-miq3bhoV0gjMJkw_J-1" source="hU-miq3bhoV0gjMJkw_J-2" target="hU-miq3bhoV0gjMJkw_J-3">
          <mxGeometry relative="1" as="geometry" />
        </mxCell>
        <mxCell id="hU-miq3bhoV0gjMJkw_J-2" value="Read Files from folder" style="rounded=0;whiteSpace=wrap;html=1;" vertex="1" parent="hU-miq3bhoV0gjMJkw_J-1">
          <mxGeometry x="302.5" y="30" width="120" height="50" as="geometry" />
        </mxCell>
        <mxCell id="hU-miq3bhoV0gjMJkw_J-11" value="" style="edgeStyle=orthogonalEdgeStyle;rounded=0;orthogonalLoop=1;jettySize=auto;html=1;" edge="1" parent="hU-miq3bhoV0gjMJkw_J-1" source="hU-miq3bhoV0gjMJkw_J-3" target="hU-miq3bhoV0gjMJkw_J-7">
          <mxGeometry relative="1" as="geometry" />
        </mxCell>
        <mxCell id="hU-miq3bhoV0gjMJkw_J-3" value="Check if any file exist?" style="rhombus;whiteSpace=wrap;html=1;" vertex="1" parent="hU-miq3bhoV0gjMJkw_J-1">
          <mxGeometry x="305" y="120" width="115" height="50" as="geometry" />
        </mxCell>
        <mxCell id="hU-miq3bhoV0gjMJkw_J-14" value="" style="edgeStyle=orthogonalEdgeStyle;rounded=0;orthogonalLoop=1;jettySize=auto;html=1;" edge="1" parent="hU-miq3bhoV0gjMJkw_J-1" source="hU-miq3bhoV0gjMJkw_J-5" target="hU-miq3bhoV0gjMJkw_J-13">
          <mxGeometry relative="1" as="geometry" />
        </mxCell>
        <mxCell id="hU-miq3bhoV0gjMJkw_J-5" value="Loop through Files" style="shape=loopLimit;whiteSpace=wrap;html=1;direction=west;" vertex="1" parent="hU-miq3bhoV0gjMJkw_J-1">
          <mxGeometry x="311" y="330" width="100" height="30" as="geometry" />
        </mxCell>
        <mxCell id="hU-miq3bhoV0gjMJkw_J-6" value="Loop through Files" style="shape=loopLimit;whiteSpace=wrap;html=1;direction=east;" vertex="1" parent="hU-miq3bhoV0gjMJkw_J-1">
          <mxGeometry x="312.5" y="200" width="100" height="30" as="geometry" />
        </mxCell>
        <mxCell id="hU-miq3bhoV0gjMJkw_J-12" value="" style="edgeStyle=orthogonalEdgeStyle;rounded=0;orthogonalLoop=1;jettySize=auto;html=1;" edge="1" parent="hU-miq3bhoV0gjMJkw_J-1" source="hU-miq3bhoV0gjMJkw_J-7" target="hU-miq3bhoV0gjMJkw_J-5">
          <mxGeometry relative="1" as="geometry" />
        </mxCell>
        <mxCell id="hU-miq3bhoV0gjMJkw_J-7" value="Read Data" style="rounded=0;whiteSpace=wrap;html=1;" vertex="1" parent="hU-miq3bhoV0gjMJkw_J-1">
          <mxGeometry x="312.5" y="260" width="97" height="30" as="geometry" />
        </mxCell>
        <mxCell id="hU-miq3bhoV0gjMJkw_J-9" value="" style="edgeStyle=orthogonalEdgeStyle;rounded=0;orthogonalLoop=1;jettySize=auto;html=1;" edge="1" parent="hU-miq3bhoV0gjMJkw_J-1" source="hU-miq3bhoV0gjMJkw_J-8" target="hU-miq3bhoV0gjMJkw_J-2">
          <mxGeometry relative="1" as="geometry" />
        </mxCell>
        <mxCell id="hU-miq3bhoV0gjMJkw_J-8" value="Start" style="ellipse;whiteSpace=wrap;html=1;" vertex="1" parent="hU-miq3bhoV0gjMJkw_J-1">
          <mxGeometry x="302.5" y="-60" width="120" height="40" as="geometry" />
        </mxCell>
        <mxCell id="hU-miq3bhoV0gjMJkw_J-13" value="End" style="ellipse;whiteSpace=wrap;html=1;" vertex="1" parent="hU-miq3bhoV0gjMJkw_J-1">
          <mxGeometry x="301" y="400" width="120" height="40" as="geometry" />
        </mxCell>
      </root>
    </mxGraphModel>
  </diagram>
</mxfile>
